<?xml version="1.0" encoding="utf-8"?><!-- Generator: Adobe Illustrator 25.0.1, SVG Export Plug-In . SVG Version: 6.00 Build 0)  --><svg xmlns="http://www.w3.org/2000/svg" xmlns:xlink="http://www.w3.org/1999/xlink" version="1.1" x="0px" y="0px" viewBox="0 0 981.8 1080" style="enable-background:new 0 0 981.8 1080;" xml:space="preserve">
<style type="text/css">
	.st0{display:none;}
	.st1{display:inline;}
	.st2{fill:#000000;}
	.st3{fill-rule:evenodd;clip-rule:evenodd;fill:#000000;}
</style>
<g xmlns:serif="http://www.serif.com/" id="Warstwa_1" class="st0">
	<g transform="matrix(1,0,0,1,-0.0120658,-0.05)" class="st1">
		<g transform="matrix(1,0,0,1,-317.5,-144.38)">
			<path class="st2" d="M1306.3,752.4l-7-16.8c-4.4-10.5-14.7-17.3-26-17.3h-112.5l-34-104.7c-7.6-23.4-29.5-39.3-54-39.3h-48.6     c5.4,18.3,8.4,37.3,8.9,56.4h40l50.2,154.7h-621l50.2-154.7h43.4c0.5-19.1,3.5-38,8.9-56.4h-51.9c-24.6,0-46.4,15.9-54,39.3     l-34,104.8H352.6c-11.4,0-21.7,6.8-26,17.3l-6.9,16.6c-1.4,3.4-2.2,7.1-2.2,10.8c0,12,7.6,22.7,19,26.7l74.1,25.6l-58.5,51.8     c-13.2,11.7-20.8,28.5-20.8,46.1v309.6h170v-85h623.2v85h170V913.4c0-17.6-7.6-34.4-20.8-46.1l-58.4-51.8l74-25.6     c11.4-3.9,19.2-14.7,19.2-26.7C1308.4,759.5,1307.7,755.8,1306.3,752.4z M556.2,988.7H425.5c-16.4,0-29.9-13.5-29.9-29.9l0,0     v-28.2c0-16.4,13.5-30,30-30c2.1,0,4.2,0.2,6.3,0.7l130.7,28.3c13.7,3,23.5,15.2,23.5,29.2C586.1,975.1,572.6,988.6,556.2,988.7z      M1230,930.5v28.2l0,0c0,16.4-13.5,29.9-29.9,29.9h-130.7c-16.4-0.1-29.8-13.6-29.8-30c0-14,9.8-26.2,23.5-29.2l130.8-28.3     c2.1-0.4,4.2-0.7,6.3-0.7C1216.5,900.6,1230,914.1,1230,930.5z"/>
		</g>
		<path class="st2" d="M445.6,335.5h102.7v26.3l-13.1,12v52.5L505.3,455l43,31l-43,33.4l21.5,16.7v38.2l-31.1,33.4l-33.4-31v-203    l-16.7-14.4L445.6,335.5L445.6,335.5z"/>
		<g transform="matrix(1,0,0,1,-317.5,-144.38)">
			<path class="st2" d="M904.6,424.1l42.9-81c4.3-8.2,6.6-17.4,6.6-26.7v-28.5c0-6.6-1.1-13.1-3.3-19.3l-30.8-86     c-8.1-22.8-29.9-38.1-54-38.1h-86.3c-24.2,0-45.9,15.3-54.1,38.1l-30.8,86.3c-2.2,6.2-3.3,12.7-3.3,19.3v28.4     c0,9.3,2.3,18.5,6.7,26.7l42.8,81c9.9,18.8,29.5,30.6,50.8,30.6H854C875.2,454.7,894.7,442.9,904.6,424.1z M790.7,243.4     c-0.4,0-0.8,0-1.1,0c-15.7,0-28.7-12.9-28.7-28.7c0-15.7,12.9-28.7,28.7-28.7c0.4,0,0.8,0,1.1,0h64.5     c15.3,0.6,27.5,13.3,27.5,28.6s-12.2,28-27.5,28.6h-64.5V243.4z"/>
		</g>
	</g>
</g>
<g id="Warstwa_2">
	<g transform="matrix(1,0,0,1,0.00179868,0)">
		<rect x="0" y="966" class="st3" width="979.3" height="51.4"/>
		<g transform="matrix(1,0,0,1,-312.22,-155.33)">
			<path class="st2" d="M1289.4,589.6l-6.9-16.6c-4.3-10.3-14.5-17.1-25.7-17.1h-111l-33.7-103.6c-7.5-23.1-29.1-38.8-53.4-38.8     h-51.6c3.6,15.3,5.4,30.9,5.4,46.6c0,3.1,0,6.1-0.3,9.1h46.8l49.7,152.8H495l49.6-152.8h58.4v-9.1c0-15.7,1.8-31.3,5.3-46.6H545     c-24.2,0-45.9,15.7-53.4,38.8l-33.7,103.6H347c-11.2,0-21.4,6.8-25.7,17.1l-6.9,16.6c-1.4,3.4-2.2,7-2.2,10.7     c0,11.9,7.6,22.5,18.8,26.4l73.3,25.3l-57.9,51.1c-13.1,11.6-20.6,28.3-20.5,45.8v306h168v-84.1h616v84h167.9V748.9     c0.1-17.5-7.4-34.2-20.5-45.8l-57.8-51.2l73.3-25.3c11.1-3.9,18.6-14.5,18.6-26.2C1291.5,596.6,1290.8,593,1289.4,589.6z      M548.3,823.1H419.1c-16.2,0-29.6-13.4-29.6-29.6v-28l0,0c0-16.2,13.4-29.6,29.6-29.6c2.2,0,4.2,0.3,6.3,0.7l129.2,27.9     c13.6,2.8,23.4,15,23.4,29c0,16.2-13.4,29.6-29.6,29.6C548.4,823.1,548.4,823.1,548.3,823.1z M1214.3,765.5v28     c0,16.2-13.4,29.6-29.6,29.6h-129.2c0,0,0,0-0.1,0c-16.2,0-29.6-13.4-29.6-29.6c0-14,9.8-26,23.4-29l129.2-27.9     c2.1-0.4,4.1-0.7,6.3-0.7C1201,736,1214.3,749.3,1214.3,765.5z"/>
		</g>
		<g transform="matrix(1,0,0,1,-312.22,-155.33)">
			<path class="st2" d="M807.3,246.1c-89.1,0-162.4,73.3-162.4,162.4s73.3,162.4,162.4,162.4s162.4-73.3,162.4-162.4     S896.5,246.1,807.3,246.1z M802.7,448.1V474h-86.1c-0.1-8.9,1.3-17.7,4.1-26.2c3.3-9,8.6-17.2,15.5-24l22.9-23.4     c2.9-2.8,5.3-5.9,7.2-9.6c1.6-3.8,2.2-7.8,2.1-11.9c0.3-4-0.4-8-2.4-11.5c-1.6-2.1-4-3.2-6.5-3.1c-1.2,0-2.4,0.3-3.4,0.6     c-1.2,0.5-2.3,1.4-3.1,2.5c-1,1.6-1.8,3.4-2.2,5.3c-0.7,3-0.9,6.1-0.9,9.1v5.5h-32.1c0.1-6.1,0.7-12.3,1.8-18.4     c0.9-5.2,3.1-10,6.3-14c3.4-4.2,7.8-7.3,12.9-9.1c7.1-2.3,14.5-3.4,21.9-3.2c7.2-0.2,14.2,0.8,21.1,2.8c4.8,1.5,9.2,4.1,12.8,7.7     c3.1,3.2,5.3,7.1,6.5,11.4c1.2,4.5,1.7,9.1,1.7,13.8c0.2,7.7-1.4,15.3-4.6,22.4c-3,6.1-7,11.6-11.8,16.5L766.2,437l-4.9,5     c-1.6,1.6-2.8,3.6-3.6,5.8L802.7,448.1z M897.9,449.6h-11.5V474h-32.1v-24.5h-46.6v-25.9l41.3-77.9h37.4v79.2H898L897.9,449.6z"/>
		</g>
		<path class="st2" d="M543.3,269.5h-21.8l21.5-43.6h0.3L543.3,269.5L543.3,269.5z"/>
	</g>
</g>
</svg>