<svg xmlns:serif="http://www.serif.com/" xmlns="http://www.w3.org/2000/svg" xmlns:xlink="http://www.w3.org/1999/xlink" version="1.1" id="Warstwa_1" x="0px" y="0px" viewBox="0 0 981.8 1080" style="enable-background:new 0 0 981.8 1080;" xml:space="preserve">
<style type="text/css">
	.st0{fill:#000000;}
</style>
<g transform="matrix(1,0,0,1,-0.0120658,-0.05)">
	<g transform="matrix(1,0,0,1,-317.5,-144.38)">
		<path class="st0" d="M1306.3,752.4l-7-16.8c-4.4-10.5-14.7-17.3-26-17.3h-112.5l-34-104.7c-7.6-23.4-29.5-39.3-54-39.3h-48.6    c5.4,18.3,8.4,37.3,8.9,56.4h40l50.2,154.7h-621l50.2-154.7h43.4c0.5-19.1,3.5-38,8.9-56.4h-51.9c-24.6,0-46.4,15.9-54,39.3    l-34,104.8H352.6c-11.4,0-21.7,6.8-26,17.3l-6.9,16.6c-1.4,3.4-2.2,7.1-2.2,10.8c0,12,7.6,22.7,19,26.7l74.1,25.6l-58.5,51.8    c-13.2,11.7-20.8,28.5-20.8,46.1v309.6h170v-85h623.2v85h170V913.4c0-17.6-7.6-34.4-20.8-46.1l-58.4-51.8l74-25.6    c11.4-3.9,19.2-14.7,19.2-26.7C1308.4,759.5,1307.7,755.8,1306.3,752.4z M556.2,988.7H425.5c-16.4,0-29.9-13.5-29.9-29.9l0,0    v-28.2c0-16.4,13.5-30,30-30c2.1,0,4.2,0.2,6.3,0.7l130.7,28.3c13.7,3,23.5,15.2,23.5,29.2C586.1,975.1,572.6,988.6,556.2,988.7z     M1230,930.5v28.2l0,0c0,16.4-13.5,29.9-29.9,29.9h-130.7c-16.4-0.1-29.8-13.6-29.8-30c0-14,9.8-26.2,23.5-29.2l130.8-28.3    c2.1-0.4,4.2-0.7,6.3-0.7C1216.5,900.6,1230,914.1,1230,930.5z" fill="#000000"/>
	</g>
	<path class="st0" d="M445.6,335.5h102.7v26.3l-13.1,12v52.5L505.3,455l43,31l-43,33.4l21.5,16.7v38.2l-31.1,33.4l-33.4-31v-203   l-16.7-14.4V335.5z" fill="#000000"/>
	<g transform="matrix(1,0,0,1,-317.5,-144.38)">
		<path class="st0" d="M904.6,424.1l42.9-81c4.3-8.2,6.6-17.4,6.6-26.7v-28.5c0-6.6-1.1-13.1-3.3-19.3l-30.8-86    c-8.1-22.8-29.9-38.1-54-38.1h-86.3c-24.2,0-45.9,15.3-54.1,38.1l-30.8,86.3c-2.2,6.2-3.3,12.7-3.3,19.3v28.4    c0,9.3,2.3,18.5,6.7,26.7l42.8,81c9.9,18.8,29.5,30.6,50.8,30.6H854C875.2,454.7,894.7,442.9,904.6,424.1z M790.7,243.4    c-0.4,0-0.8,0-1.1,0c-15.7,0-28.7-12.9-28.7-28.7c0-15.7,12.9-28.7,28.7-28.7c0.4,0,0.8,0,1.1,0h64.5    c15.3,0.6,27.5,13.3,27.5,28.6s-12.2,28-27.5,28.6h-64.5V243.4z" fill="#000000"/>
	</g>
</g>
</svg>