<svg version="1.1" xmlns="http://www.w3.org/2000/svg" xmlns:xlink="http://www.w3.org/1999/xlink" width="24" height="24" viewBox="0,0,256,256"><g fill="#00aeae" fill-rule="nonzero" stroke="none" stroke-width="1" stroke-linecap="butt" stroke-linejoin="miter" stroke-miterlimit="10" stroke-dasharray="" stroke-dashoffset="0" font-family="none" font-weight="none" font-size="none" text-anchor="none" style="mix-blend-mode: normal"><g transform="translate(0.03084,0.03092) scale(10.66667,10.66667)"><path d="M12.71,2.29c-0.18777,-0.18931 -0.44336,-0.2958 -0.71,-0.2958c-0.26664,0 -0.52223,0.10649 -0.71,0.2958l-9,9c-0.18931,0.18777 -0.2958,0.44336 -0.2958,0.71c0,0.26664 0.10649,0.52223 0.2958,0.71c0.18872,0.18719 0.4442,0.29154 0.71,0.29h1v7c0,1.10457 0.89543,2 2,2h12c1.10457,0 2,-0.89543 2,-2v-7h1c0.55228,0 1,-0.44772 1,-1c0.00154,-0.2658 -0.10281,-0.52128 -0.29,-0.71zM6,20v-9.59l6,-6l6,6v9.59z"></path></g></g></svg>