<svg version="1.1" xmlns="http://www.w3.org/2000/svg" xmlns:xlink="http://www.w3.org/1999/xlink" width="32px" height="32px" viewBox="0,0,256,256"><g fill="#b4b4b4" fill-rule="nonzero" stroke="none" stroke-width="1" stroke-linecap="butt" stroke-linejoin="miter" stroke-miterlimit="10" stroke-dasharray="" stroke-dashoffset="0" font-family="none" font-weight="none" font-size="none" text-anchor="none" style="mix-blend-mode: normal"><g transform="translate(0.28613,0) scale(8,8)"><g id="notification"><path d="M26,25.71c-0.65143,-2.13306 -0.98831,-4.34972 -1,-6.58v-5.32c0.08794,-3.84483 -2.34771,-7.29533 -6,-8.5v-0.31c0,-1.65685 -1.34315,-3 -3,-3c-1.65685,0 -3,1.34315 -3,3v0.29c-3.68533,1.18265 -6.15201,4.65065 -6.06,8.52v5.32c-0.00678,2.23067 -0.34376,4.44804 -1,6.58c-0.09438,0.31036 -0.03234,0.64722 0.1664,0.9036c0.19875,0.25638 0.50951,0.40043 0.8336,0.3864h5.2c0.45478,1.7614 2.04084,2.99409 3.86,3v0c1.80797,-0.01946 3.37809,-1.24932 3.83,-3h5.17c0.31476,0 0.61115,-0.14819 0.8,-0.4c0.20597,-0.24721 0.28041,-0.57843 0.2,-0.89zM15,5c0,-0.55228 0.44772,-1 1,-1c0.55228,0 1,0.44772 1,1zM16,28v0c-0.70664,-0.00782 -1.3567,-0.38797 -1.71,-1h3.48c-0.36396,0.6307 -1.04195,1.01374 -1.77,1zM19,25h-10.76c0.46282,-1.92243 0.69777,-3.89265 0.7,-5.87v-5.32c0,-3.75 2.73,-6.81 6.06,-6.81h1.9c3.36,0 6.1,3.06 6.1,6.81v5.32c0.00223,1.97735 0.23718,3.94757 0.7,5.87z"></path></g></g></g></svg>