<svg xmlns="http://www.w3.org/2000/svg" xmlns:xlink="http://www.w3.org/1999/xlink" xmlns:serif="http://www.serif.com/" width="100%" height="100%" viewBox="0 0 205 211" version="1.1" xml:space="preserve" style="fill-rule:evenodd;clip-rule:evenodd;stroke-linejoin:round;stroke-miterlimit:2;">
    <g transform="matrix(1,0,0,1,-0.94798,-1.06798)">
        <g transform="matrix(1,0,0,1,-326.22,-159.75)">
            <path d="M342.2,221C342.193,228.994 344.316,236.848 348.35,243.75C349.5,241.07 350.76,238.44 352.12,235.88C350.909,233.012 350.055,230.006 349.58,226.93C352.311,226.53 355.071,226.36 357.83,226.42C366.847,213.147 378.831,202.153 392.83,194.31C392.443,190.553 392.543,186.761 393.13,183.03C397.938,183.74 402.565,185.366 406.76,187.82C409.48,186.793 412.253,185.877 415.08,185.07C407.166,178.98 397.456,175.676 387.47,175.676C362.636,175.676 342.2,196.111 342.2,220.946C342.2,220.964 342.2,220.982 342.2,221ZM367.68,213.77C362.05,216.58 354.29,216.08 349.53,215.39C350.445,209.238 352.848,203.402 356.53,198.39C360.42,201.3 366.29,206.49 368.21,212.5C368,213 367.83,213.37 367.68,213.8L367.68,213.77ZM379.86,201.33C379.433,201.497 379.013,201.677 378.6,201.87C372.6,199.87 367.5,194.05 364.6,190.19C369.581,186.478 375.393,184.034 381.53,183.07C382.26,187.91 382.75,195.74 379.86,201.36L379.86,201.33Z" style="fill:#000000;fill-rule:nonzero;"/>
        </g>
        <g transform="matrix(1,0,0,1,-326.22,-159.75)">
            <path d="M337.3,221C337.3,220.983 337.3,220.967 337.3,220.95C337.3,193.427 359.948,170.78 387.47,170.78C399.846,170.78 411.794,175.359 421,183.63C425.422,182.671 429.901,182.003 434.41,181.63C422.789,168.408 406.013,160.818 388.41,160.818C354.814,160.818 327.168,188.464 327.168,222.06C327.168,236.937 332.589,251.316 342.41,262.49C343.367,258.08 344.613,253.737 346.14,249.49C340.364,241.115 337.279,231.174 337.3,221Z" style="fill:#000000;fill-rule:nonzero;"/>
        </g>
        <g transform="matrix(1,0,0,1,-326.22,-159.75)">
            <path d="M443.13,223.15C410.215,223.15 383.13,250.235 383.13,283.15C383.13,316.065 410.215,343.15 443.13,343.15C476.045,343.15 503.13,316.065 503.13,283.15C503.086,250.252 476.028,223.194 443.13,223.15ZM452.13,287.45C452.485,286.711 452.75,285.932 452.92,285.13L490.92,284.28C490.701,293.852 487.591,303.137 482,310.91L452.13,287.45ZM481.4,254.58L450,275.9C449.394,275.338 448.722,274.851 448,274.45L458.72,238C467.76,241.142 475.656,246.918 481.39,254.58L481.4,254.58ZM427.54,238L438.29,274.44C437.648,274.799 437.047,275.228 436.5,275.72L405.63,253.62C411.294,246.432 418.898,241.011 427.54,238ZM395.36,283.05L433.36,284.87C433.498,285.677 433.736,286.463 434.07,287.21L403.62,309.91C398.252,302.02 395.387,292.692 395.4,283.15L395.36,283.05ZM428.51,328.62L441.78,293C442.593,293.105 443.417,293.105 444.23,293L456.59,329C447.408,331.704 437.62,331.578 428.51,328.64L428.51,328.62Z" style="fill:#000000;fill-rule:nonzero;"/>
        </g>
        <g transform="matrix(1,0,0,1,-326.22,-159.75)">
            <path d="M531.72,281.89C531.674,278.882 531.477,275.878 531.13,272.89L528.5,273.07L528.22,270.89L530.81,270.38C530.374,267.389 529.786,264.422 529.05,261.49L526.45,262.01L525.88,259.89L528.38,259.05C527.554,256.142 526.58,253.278 525.46,250.47L522.97,251.32L522.13,249.32L524.5,248.15C523.287,245.37 521.953,242.667 520.5,240.04L518.16,241.2L517.06,239.3L519.24,237.84C517.702,235.25 516.033,232.74 514.24,230.32L512,231.7L510.66,230L512.61,228.29C510.73,225.917 508.73,223.647 506.61,221.48L504.66,223.19L503.11,221.64L504.82,219.69C502.653,217.59 500.383,215.59 498.01,213.69L496.3,215.64L494.56,214.3L496.02,212.13C493.595,210.339 491.082,208.67 488.49,207.13L487.03,209.31L485.13,208.21L486.29,205.87C483.657,204.399 480.95,203.064 478.18,201.87L477,204.16L475,203.32L475.84,200.83C473.035,199.715 470.174,198.744 467.27,197.92L466.42,200.41L464.3,199.84L464.82,197.24C461.888,196.504 458.921,195.916 455.93,195.48L455.42,198.07L453.25,197.79L453.42,195.16C450.42,194.82 447.42,194.62 444.42,194.57L444.25,197.2L442,197.2L441.82,194.57C438.767,194.623 435.767,194.82 432.82,195.16L432.99,197.79L430.81,198.07L430.3,195.48C427.309,195.917 424.342,196.505 421.41,197.24L421.93,199.84L419.81,200.41L418.97,197.92C416.062,198.743 413.198,199.714 410.39,200.83L411.24,203.32L409.24,204.16L408.08,201.8C405.306,202.992 402.596,204.327 399.96,205.8L401.12,208.14L399.22,209.24L397.77,207.06C395.175,208.596 392.662,210.265 390.24,212.06L391.69,214.23L389.95,215.57L388.24,213.62C385.867,215.5 383.597,217.5 381.43,219.62L383.14,221.57L381.59,223.12L379.64,221.41C377.54,223.583 375.54,225.853 373.64,228.22L375.64,229.93L374.3,231.67L372.13,230.22C370.337,232.64 368.668,235.15 367.13,237.74L369.3,239.2L368.21,241.1L365.79,240C364.319,242.633 362.984,245.34 361.79,248.11L364.15,249.28L363.31,251.28L360.82,250.43C359.704,253.238 358.733,256.102 357.91,259.01L360.4,259.85L359.83,261.97L357.23,261.45C356.494,264.382 355.906,267.349 355.47,270.34L358.07,270.85L357.78,273.03L355.15,272.85C354.806,275.838 354.613,278.842 354.57,281.85L357.19,282.02L357.19,284.22L354.57,284.39C354.613,287.398 354.806,290.402 355.15,293.39L357.78,293.21L358.07,295.39L355.47,295.9C355.906,298.891 356.494,301.858 357.23,304.79L359.83,304.27L360.4,306.39L357.91,307.23C358.733,310.138 359.704,313.002 360.82,315.81L363.31,314.96L364.15,316.96L361.79,318.13C362.984,320.9 364.319,323.607 365.79,326.24L368.14,325.08L369.23,326.98L367.06,328.44C368.6,331.032 370.269,333.545 372.06,335.97L374.23,334.51L375.57,336.25L373.57,337.96C375.45,340.333 377.45,342.603 379.57,344.77L381.52,343.06L383.07,344.61L381.36,346.56C383.527,348.66 385.797,350.66 388.17,352.56L389.88,350.61L391.62,351.95L390.17,354.12C392.592,355.915 395.105,357.584 397.7,359.12L399.15,356.94L401.05,358.04L399.89,360.38C402.526,361.853 405.236,363.188 408.01,364.38L409.17,362.02L411.17,362.86L410.32,365.35C413.157,366.521 416.054,367.54 419,368.4L419.84,365.91L421.96,366.48L421.44,369.08C424.372,369.815 427.339,370.403 430.33,370.84L430.84,368.25L433.02,368.53L432.85,371.16C435.838,371.507 438.842,371.704 441.85,371.75L442.03,369.12L444.22,369.12L444.39,371.75C447.398,371.704 450.402,371.507 453.39,371.16L453.22,368.53L455.39,368.25L455.9,370.84C458.891,370.404 461.858,369.816 464.79,369.08L464.27,366.48L466.39,365.91L467.24,368.4C470.146,367.58 473.006,366.609 475.81,365.49L475,363L477,362.16L478.17,364.52C480.94,363.326 483.647,361.991 486.28,360.52L485.12,358.18L487.02,357.08L488.48,359.26C491.072,357.72 493.585,356.051 496.01,354.26L494.59,352L496.33,350.66L498.04,352.61C500.413,350.73 502.683,348.73 504.85,346.61L503.14,344.66L504.69,343.11L506.64,344.82C508.74,342.653 510.74,340.383 512.64,338.01L510.69,336.3L512.03,334.56L514.2,336.02C515.991,333.595 517.66,331.082 519.2,328.49L517,327.09L518.1,325.19L520.44,326.35C521.913,323.723 523.247,321.02 524.44,318.24L522.07,317.07L522.91,315.07L525.4,315.92C526.52,313.112 527.494,310.248 528.32,307.34L525.82,306.5L526.39,304.38L528.99,304.9C529.726,301.968 530.314,299.001 530.75,296.01L528.16,295.5L528.44,293.32L531.07,293.5C531.417,290.512 531.614,287.508 531.66,284.5L529.04,284.33L529.04,282.13L531.72,281.89ZM443.13,352C443.127,352 443.123,352 443.12,352C405.334,352 374.24,320.906 374.24,283.12C374.24,245.334 405.334,214.24 443.12,214.24C480.906,214.24 512,245.334 512,283.12C512,283.133 512,283.147 512,283.16C511.913,320.903 480.873,351.929 443.13,352Z" style="fill:#000000;fill-rule:nonzero;"/>
        </g>
    </g>
</svg>