<svg xmlns="http://www.w3.org/2000/svg" xmlns:xlink="http://www.w3.org/1999/xlink" xmlns:serif="http://www.serif.com/" width="100%" height="100%" viewBox="0 0 247 298" version="1.1" xml:space="preserve" style="fill-rule:evenodd;clip-rule:evenodd;stroke-linejoin:round;stroke-miterlimit:2;">
    <g transform="matrix(1,0,0,1,-0.00432057,0)">
        <g transform="matrix(1,0,0,1,-305.66,-117.09)">
            <path d="M494.86,246L494,243.92C493.457,242.618 492.181,241.764 490.77,241.76L476.82,241.76L472.6,228.76C471.671,225.852 468.943,223.872 465.89,223.89L401.34,223.89C398.293,223.891 395.575,225.864 394.63,228.76L390.41,241.76L376.47,241.76C375.058,241.759 373.778,242.614 373.24,243.92L372.37,246C372.191,246.427 372.099,246.885 372.099,247.348C372.099,248.836 373.052,250.168 374.46,250.65L383.65,253.83L376.39,260.27C374.749,261.721 373.808,263.81 373.81,266L373.81,304.44L394.92,304.44L394.92,293.84L472.31,293.84L472.31,304.39L493.42,304.39L493.42,266C493.422,263.81 492.481,261.721 490.84,260.27L483.58,253.83L492.78,250.65C494.184,250.166 495.132,248.836 495.132,247.351C495.132,246.887 495.04,246.428 494.86,246ZM401.76,275.34L385.53,275.34C385.527,275.34 385.523,275.34 385.52,275.34C383.485,275.34 381.81,273.665 381.81,271.63L381.81,268.12C381.81,268.119 381.81,268.118 381.81,268.117C381.81,266.077 383.489,264.397 385.53,264.397C385.792,264.397 386.054,264.425 386.31,264.48L402.54,267.99C404.233,268.369 405.447,269.885 405.447,271.62C405.447,273.649 403.788,275.322 401.76,275.34ZM395.06,250L401.3,230.79L465.93,230.79L472.17,250L395.06,250ZM485.42,268L485.42,271.51C485.42,273.545 483.745,275.22 481.71,275.22L465.48,275.22C463.448,275.207 461.783,273.532 461.783,271.5C461.783,269.765 462.997,268.249 464.69,267.87L480.92,264.36C481.177,264.305 481.438,264.277 481.701,264.277C483.741,264.277 485.421,265.956 485.421,267.997C485.421,268.021 485.42,268.046 485.42,268.07L485.42,268Z" style="fill:#000000;fill-rule:nonzero;"/>
        </g>
        <g transform="matrix(1,0,0,1,-305.66,-117.09)">
            <path d="M339.55,312.63C330.265,297.592 325.347,280.263 325.347,262.59C325.347,211.238 366.874,168.657 418.21,167.37L433,167L433,200.2L473.93,159.28L433,117.09L433,147.34L418.84,147.58C356.433,148.624 305.664,200.249 305.664,262.664C305.664,285.553 312.492,307.93 325.27,326.92L339.55,312.63Z" style="fill:#000000;fill-rule:nonzero;"/>
        </g>
        <g transform="matrix(1,0,0,1,-305.66,-117.09)">
            <path d="M425,364.52L425,331.32L384,372.24L425,414.4L425,384.15L439.16,383.91C501.566,382.873 552.338,331.25 552.338,268.836C552.338,245.947 545.509,223.57 532.73,204.58L518.44,218.87C527.726,233.907 532.645,251.236 532.645,268.91C532.645,320.26 491.115,362.839 439.78,364.12L425,364.52Z" style="fill:#000000;fill-rule:nonzero;"/>
        </g>
    </g>
</svg>