<svg xmlns="http://www.w3.org/2000/svg" xmlns:xlink="http://www.w3.org/1999/xlink" xmlns:serif="http://www.serif.com/" width="100%" height="100%" viewBox="0 0 274 290" version="1.1" xml:space="preserve" style="fill-rule:evenodd;clip-rule:evenodd;stroke-linejoin:round;stroke-miterlimit:2;">
    <g transform="matrix(1,0,0,1,-5.68434e-14,-0.0401025)">
        <g transform="matrix(1,0,0,1,-284.44,-152.46)">
            <path d="M536,297.33C535.994,291.913 535.607,286.503 534.84,281.14L558.31,250.05C552.738,233.907 544.352,218.878 533.54,205.66L494.76,209.29C485.549,201.627 475.193,195.455 464.07,191L448.89,155.15C432.125,151.894 414.915,151.636 398.06,154.39L381.84,189.75C370.588,193.897 360.059,199.789 350.64,207.21L312,202.39C300.793,215.273 291.953,230.038 285.89,246L308.44,277.78C306.381,289.588 306.202,301.647 307.91,313.51L284.44,344.6C290.009,360.747 298.395,375.78 309.21,389L348,385.36C357.205,393.042 367.562,399.228 378.69,403.69L393.87,439.55C410.633,442.797 427.839,443.051 444.69,440.3L460.89,405C472.142,400.847 482.674,394.956 492.1,387.54L530.74,392.32C541.948,379.43 550.788,364.659 556.85,348.69L534.3,316.86C535.42,310.41 535.989,303.876 536,297.33ZM515.09,297.33C515.09,348.743 472.783,391.05 421.37,391.05C369.957,391.05 327.65,348.743 327.65,297.33C327.65,245.917 369.957,203.61 421.37,203.61C421.373,203.61 421.377,203.61 421.38,203.61C472.786,203.621 515.08,245.924 515.08,297.33L515.09,297.33Z" style="fill:#000000;fill-rule:nonzero;"/>
        </g>
        <g transform="matrix(1,0,0,1,-284.44,-152.46)">
            <path d="M482.29,279.27L481.43,277.19C480.887,275.896 479.614,275.049 478.21,275.05L464.35,275.05L460.14,262.11C459.209,259.224 456.503,257.256 453.47,257.26L389.27,257.26C386.234,257.252 383.523,259.22 382.59,262.11L378.39,275.05L364.52,275.05C363.12,275.053 361.852,275.899 361.31,277.19L360.45,279.27C360.27,279.696 360.178,280.153 360.178,280.615C360.178,282.092 361.123,283.413 362.52,283.89L371.67,287.05L364.45,293.45C362.819,294.895 361.883,296.971 361.88,299.15L361.88,337.4L382.88,337.4L382.88,326.9L459.88,326.9L459.88,337.4L480.88,337.4L480.88,299.15C480.881,296.973 479.948,294.896 478.32,293.45L471.1,287.05L480.24,283.89C481.627,283.403 482.562,282.086 482.562,280.616C482.562,280.153 482.469,279.696 482.29,279.27ZM389.68,308.45L373.53,308.45C371.506,308.45 369.84,306.784 369.84,304.76C369.84,304.757 369.84,304.753 369.84,304.75L369.84,301.26C369.84,301.259 369.84,301.258 369.84,301.257C369.84,299.232 371.506,297.567 373.53,297.567C373.792,297.567 374.054,297.595 374.31,297.65L390.46,301.14C392.143,301.518 393.349,303.025 393.349,304.75C393.349,306.768 391.698,308.433 389.68,308.45ZM383,283.32L389.2,264.21L453.49,264.21L459.7,283.32L383,283.32ZM472.88,301.26L472.88,304.75C472.88,304.753 472.88,304.757 472.88,304.76C472.88,306.784 471.214,308.45 469.19,308.45C469.187,308.45 469.183,308.45 469.18,308.45L453.06,308.45C451.042,308.433 449.391,306.768 449.391,304.75C449.391,303.025 450.597,301.518 452.28,301.14L468.42,297.65C468.676,297.595 468.938,297.567 469.2,297.567C471.227,297.567 472.896,299.233 472.9,301.26L472.88,301.26Z" style="fill:#000000;fill-rule:nonzero;"/>
        </g>
    </g>
</svg>