<svg xmlns="http://www.w3.org/2000/svg" xmlns:xlink="http://www.w3.org/1999/xlink" version="1.1" id="Layer_1" x="0px" y="0px" viewBox="0 0 246.6 297.3" style="enable-background:new 0 0 246.6 297.3;" xml:space="preserve">
<style type="text/css">
	.st0{fill:#000000;}
</style>
<path class="st0" d="M189.2,98.9l-0.9-2.1c-0.5-1.3-1.8-2.2-3.2-2.2h-13.9l-4.2-13c-0.9-2.9-3.6-4.9-6.7-4.9H95.7  c-3.1,0-5.8,2-6.7,4.9l-4.2,13H70.8c-1.4,0-2.7,0.9-3.2,2.2l-0.9,2.1c-0.7,1.8,0.1,3.8,1.9,4.6c0.1,0,0.1,0.1,0.2,0.1l9.2,3.2  l-7.3,6.4c-1.6,1.5-2.6,3.5-2.6,5.7v38.4h21.1v-10.6h77.4v10.5h21.1v-38.4c0-2.2-0.9-4.3-2.6-5.7l-7.3-6.4l9.2-3.2  c1.8-0.6,2.8-2.6,2.2-4.4C189.3,99,189.2,99,189.2,98.9z M96.1,128.2H79.9c-2,0-3.7-1.7-3.7-3.7c0,0,0,0,0,0V121  c0-2.1,1.7-3.7,3.7-3.7c0.3,0,0.5,0,0.8,0.1l16.2,3.5c2,0.4,3.3,2.4,2.8,4.4C99.3,127,97.8,128.2,96.1,128.2L96.1,128.2z   M89.4,102.9l6.2-19.2h64.6l6.2,19.2H89.4z M179.8,120.9v3.5c0,2-1.7,3.7-3.7,3.7h-16.2c-2.1,0-3.7-1.7-3.7-3.7  c0-1.7,1.2-3.2,2.9-3.6l16.2-3.5c2-0.4,4,0.8,4.4,2.9C179.7,120.4,179.8,120.7,179.8,120.9L179.8,120.9z" fill="#000000"/>
<path class="st0" d="M235.4,109c-7.1-2.2-13.9-0.8-16.9,9c-2.6,8.4-7.9,25.6-9.4,30.5l-0.8,12.5l-18.7,33.3l-2.6-1.5l18.3-32.7  l0.6-9c-3.7,1.8-10,5-12.2,6.9c-4.4,3.9-13.6,19-13.6,19s-32.8-4.9-37.2,9.2c-4.3,14.1-8.7,45.4-8.7,45.4l26.2,8l12.7-20.2  c0,0,47.3-11.2,51.4-24.6C228.5,181.6,242.5,111.2,235.4,109z" fill="#000000"/>
<path class="st0" d="M10.8,109c7.1-2.2,13.9-0.8,16.9,9c2.6,8.4,7.9,25.6,9.4,30.5l0.8,12.5l18.7,33.3l2.6-1.5l-18.3-32.7l-0.6-9  c3.7,1.8,10,5,12.2,6.9c4.4,3.9,13.6,19,13.6,19s32.8-4.9,37.2,9.2c4.3,14.1,8.7,45.4,8.7,45.4l-26.2,8l-12.7-20.2  c0,0-47.3-11.2-51.4-24.6S3.7,111.2,10.8,109z" fill="#000000"/>
</svg>